<svg id="Layer_1" data-name="Layer 1" xmlns="http://www.w3.org/2000/svg" viewBox="0 0 176.57 98.36"><defs><style>.cls-1{fill:#fff;}.cls-2{fill:none;stroke:#fff;stroke-miterlimit:10;stroke-width:0.8px;}</style></defs><path class="cls-1" d="M5.46,76.39A39.15,39.15,0,0,0,26.53,53.51a37.11,37.11,0,0,0,1.77-7.65c.33-2.61.24-5.81-2.5-7.1s-5.51.93-6.93,3.21a35.47,35.47,0,0,0-3.55,8.59A45.67,45.67,0,0,0,13.76,69c.59,4.8,2.13,11.39,7.82,12.34A9,9,0,0,0,29.3,78.6c2.16-2.17,3.22-5.15,4-8a186,186,0,0,1,6.19-18.84Q41.58,46.56,44,41.55a13.11,13.11,0,0,1,1.07-2c.13-.17.38-.33.49-.51a.72.72,0,0,1,.21-.12c-.58-.43-.81-.49-.7-.17a10.22,10.22,0,0,0-.11,2.1l-.28,3L42.44,67.66a2,2,0,0,0,1.73,2,2,2,0,0,0,2.2-1.43q6.16-15.6,13.81-30.55L56.53,36.1c-2,10.76-4,21.56-4.76,32.49-.14,2,2.84,2.75,3.73,1L72.72,35.69l-3.46-2A71.34,71.34,0,0,0,62.43,64.1c0,2.28-.17,5,.69,7.11a5.06,5.06,0,0,0,5.08,3.2c4.42-.24,8-4.12,10.73-7.27a40.62,40.62,0,0,0,7.75-14c.78-2.46-3.08-3.51-3.86-1.06a36.49,36.49,0,0,1-5.39,10.56A36,36,0,0,1,73.59,67a13.32,13.32,0,0,1-4.17,3.1c-1.15.44-2.4.65-2.73-.8a27.62,27.62,0,0,1-.26-6.1,66.87,66.87,0,0,1,6.29-27.5c1.08-2.3-2.28-4.34-3.46-2L52,67.58l3.73,1c.76-10.58,2.68-21,4.62-31.43.38-2.08-2.56-3.69-3.66-1.54Q48.86,51,42.51,67.13l3.93.53,1.87-19.88.45-4.72a24.87,24.87,0,0,0,.31-4.55c-.27-2.88-3.16-4.58-5.66-2.86-2.27,1.56-3.24,4.65-4.34,7-1.26,2.77-2.46,5.57-3.57,8.4a169.11,169.11,0,0,0-5.8,17.59C29,71.22,28.3,74,26.34,75.9c-1.43,1.37-3.72,2.22-5.47.91s-2.29-3.47-2.7-5.36a37.36,37.36,0,0,1-.74-8.1A41.71,41.71,0,0,1,21,46.59c.26-.58,2.6-5.3,3.28-4a5.62,5.62,0,0,1,0,2.88,30.86,30.86,0,0,1-.72,3.79A35.29,35.29,0,0,1,3.44,72.93a2,2,0,0,0-.72,2.74,2.06,2.06,0,0,0,2.74.72Z" transform="translate(-2.46 -3.24)"/><path class="cls-1" d="M81.46,8.38l-.36.36a1.53,1.53,0,0,0-.41.65,1.45,1.45,0,0,0-.17.77,1.47,1.47,0,0,0,.17.77,1.5,1.5,0,0,0,.41.64l.41.31a1.9,1.9,0,0,0,1,.28l.53-.07a2,2,0,0,0,.88-.52l.36-.36a1.41,1.41,0,0,0,.41-.64,1.48,1.48,0,0,0,.18-.77A1.46,1.46,0,0,0,84.7,9a1.44,1.44,0,0,0-.41-.65l-.4-.31a2,2,0,0,0-1-.27l-.54.07a2.06,2.06,0,0,0-.88.51Z" transform="translate(-2.46 -3.24)"/><path class="cls-1" d="M86.9,72.56a25.49,25.49,0,0,0,7.45-7.43,89.13,89.13,0,0,0,5.85-9.58,102.76,102.76,0,0,0,8.32-20.7,102.25,102.25,0,0,0,3.64-22.25c.15-2.85.63-7-2.26-8.81-3.65-2.23-6,2.85-7.35,5.34-7.22,13-10.31,28.25-11.92,42.94-.77,7-.69,14.56,2.9,20.87a7.41,7.41,0,0,0,3.67,3.59,5.79,5.79,0,0,0,5.06-.7A14.81,14.81,0,0,0,106,72.12q1.86-2.43,3.65-4.92,3.5-4.87,6.68-10c1.09-1.73,2.14-3.47,3.16-5.24a6,6,0,0,0,1.07-4.5,2.78,2.78,0,0,0-3.6-2.07c-1.44.6-2.57,3.11-3.25,4.45A26,26,0,0,0,111,60.12a25.29,25.29,0,0,0,.32,5.43c.24,1.52,2.39,1.88,3.35.89a22.33,22.33,0,0,0,6.15-17.71c-.23-2.11-3.32-2.88-3.93-.54a23.84,23.84,0,0,0,1.66,16.4,2,2,0,0,0,3.46,0l7.29-14.12-3.66-1.54c-.28,2.06-.51,4.12-.61,6.2-.09,1.9-.39,4.21.4,6,1.57,3.62,6.37,2.91,8.41.19a15.12,15.12,0,0,0,2.09-4.94q.93-3.15,1.8-6.31,1.72-6.23,3.2-12.49,1.68-7.11,3.06-14.27c.48-2.5-3.18-3.58-3.86-1.06q-2.71,10.16-5.1,20.41c-1.55,6.7-3.07,13.48-1.89,20.37.27,1.62,3,2,3.65.48a41.38,41.38,0,0,1,3.27-6.17c.55-.85,1.13-1.7,1.76-2.5s.76-1.16,1.59-.58c2.8,2,2.72,6.32,2.55,9.33-.28,4.81-1,9.63-1.71,14.38-.72,4.6-1.3,9.47-2.84,13.89-1,2.92-4.17,7.11-7.8,5.44-2.76-1.27-2.89-5.31-2.25-7.82,1.84-7.18,8.77-11.93,15.34-14.4,9.94-3.74,20.84-3.55,30.94-6.76,2.44-.78,1.39-4.64-1.07-3.86-10.38,3.3-21.64,3-31.8,7.1-8,3.23-16.51,9.55-17.61,18.81-.46,3.89.75,8.61,4.56,10.45,4.59,2.2,9.68-.6,12.08-4.66A23.25,23.25,0,0,0,146.32,89c.59-2.81,1.1-5.64,1.56-8.47A160.38,160.38,0,0,0,150,63.41c.25-4.63-.48-10.57-5.12-12.94-3.13-1.61-5.28.69-7,3.05a41.43,41.43,0,0,0-4.5,8L137,62c-1.1-6.43.66-13,2.11-19.21Q141.4,33,144,23.31l-3.86-1.06Q137.56,35.62,134,48.77q-.9,3.28-1.87,6.55c-.38,1.26-.73,3.64-2.13,4.23-1.59.66-1-2.18-1-3a57.6,57.6,0,0,1,.52-6.56,2,2,0,0,0-1.16-2.36,2,2,0,0,0-2.5.82l-7.29,14.12H122a19.42,19.42,0,0,1-1.26-13.31l-3.93-.53a18.52,18.52,0,0,1-5,14.88l3.34.88a21.59,21.59,0,0,1,4.3-16.23l-1.72,1c-3.3-.14-.85-.9-1-.67a3,3,0,0,0-.15.55c-.25.56-.67,1.13-1,1.66q-1.2,2-2.44,4c-1.66,2.66-3.38,5.29-5.17,7.86s-3.49,5-5.38,7.37c-1.17,1.47-3.37,4.08-5,1.85-3.21-4.3-3.55-10.47-3.3-15.61a121.46,121.46,0,0,1,2.22-16.54,119.55,119.55,0,0,1,4.36-17,61.42,61.42,0,0,1,7.26-15.2l.19-.29c.18-.15.17-.18,0-.08,0,0-.7.16-.51,0a6.8,6.8,0,0,1,.41.95,13.21,13.21,0,0,1,0,3.61c-.13,2.87-.37,5.75-.76,8.6a98.26,98.26,0,0,1-3.73,16.59,96.5,96.5,0,0,1-7.49,17.57,91.18,91.18,0,0,1-5.1,8.29,21.19,21.19,0,0,1-6.25,6.33c-2.2,1.33-.19,4.79,2,3.45Z" transform="translate(-2.46 -3.24)"/><path class="cls-1" d="M139.68,39.34c.3-.15.61-.29.92-.42l-.48.2a18.39,18.39,0,0,1,4-1.16,2,2,0,0,0,1.2-.92,2,2,0,0,0-.72-2.74,2.34,2.34,0,0,0-1.54-.2,19.48,19.48,0,0,0-5.45,1.79,2,2,0,0,0-.92,1.19,2.06,2.06,0,0,0,.2,1.54,2,2,0,0,0,1.2.92,2.17,2.17,0,0,0,1.54-.2Z" transform="translate(-2.46 -3.24)"/><ellipse class="cls-2" cx="116.9" cy="48.88" rx="0.87" ry="1.19" transform="translate(51.95 155.88) rotate(-83.15)"/></svg>