<svg height='100px' width='100px'  fill="#FFFFFF" xmlns="http://www.w3.org/2000/svg" xmlns:xlink="http://www.w3.org/1999/xlink" version="1.1" x="0px" y="0px" viewBox="0 0 50 50" enable-background="new 0 0 50 50" xml:space="preserve"><g><path fill-rule="evenodd" clip-rule="evenodd" d="M29.18,17.89h13.483l-0.319,2.355H29.499L29.18,17.89z M50,14.122   C50,6.33,43.69,0,35.921,0c-7.775,0-14.078,6.324-14.078,14.122c0,7.795,6.308,14.121,14.078,14.121   C43.688,28.243,50,21.914,50,14.122z M20.156,10.949c0.461-2.314,1.422-4.498,2.826-6.402v-0.69   c-2.039,1.918-3.788,4.11-5.191,6.514C18.563,10.602,19.352,10.796,20.156,10.949z M19.844,14.005   c-1.187-0.215-2.345-0.506-3.471-0.869c-1.687,3.781-2.575,7.978-2.486,12.394c0.088,4.344,1.105,8.535,2.861,12.337   c1.996-0.619,4.086-1.011,6.234-1.139V23.695C20.943,20.925,19.792,17.453,19.844,14.005z M14.882,9.287   c1.703-3.034,3.899-5.772,6.5-8.12c-4.384,0.561-8.407,2.283-11.751,4.85C11.219,7.331,12.984,8.432,14.882,9.287z M13.513,12.026   c-2.26-1.032-4.349-2.371-6.213-3.975C2.613,12.707,0,18.935,0,25.558c0,6.614,2.62,12.875,7.311,17.517   c1.955-1.668,4.167-3.069,6.563-4.129c-1.863-4.112-2.943-8.644-3.038-13.357C10.739,20.755,11.693,16.165,13.513,12.026z    M26.045,26.85v9.877c2.175,0.125,4.285,0.516,6.294,1.14c1.086-2.407,1.887-4.977,2.355-7.664   C31.534,29.962,28.533,28.797,26.045,26.85z M37.797,30.139c-0.484,3.093-1.368,6.049-2.592,8.805   c2.38,1.056,4.573,2.454,6.516,4.127c5.188-5.156,7.813-12.208,7.229-19.502C46.312,27.221,42.277,29.614,37.797,30.139z    M30.918,40.642c-1.562-0.444-3.192-0.729-4.873-0.837v7.238C27.922,45.147,29.564,42.995,30.918,40.642z M22.981,46.856v-7.05   c-1.645,0.109-3.248,0.392-4.787,0.828C19.531,42.909,21.142,45.002,22.981,46.856z M21.826,50   c-2.588-2.402-4.808-5.214-6.563-8.319c-2.04,0.885-3.933,2.047-5.617,3.428C13.1,47.755,17.276,49.502,21.826,50z M33.838,41.691   c-1.72,3.101-3.888,5.897-6.406,8.282c4.46-0.531,8.555-2.264,11.951-4.865C37.712,43.724,35.847,42.569,33.838,41.691z    M43.926,8.564l-1.077,7.959H28.995l-1.077-7.959l5.077,4.974l2.927-5.54l2.927,5.54L43.926,8.564z"></path></g></svg>