<svg height='100px' width='100px'  fill="#FFFFFF" xmlns="http://www.w3.org/2000/svg" viewBox="0 0 25 25" x="0px" y="0px"><g data-name="Business Strategy 02"><path d="M19.2,9.56,15.45,5a.52.52,0,0,1,0-.57l.88-1.54a9.21,9.21,0,0,0-8.56,7.28A55.13,55.13,0,0,0,6.78,19H16.93V17.11c-2.55-2.62-3.2-4.67-3.25-6A2.88,2.88,0,0,1,12,8.49V6.86a.5.5,0,0,1,.5-.5.51.51,0,0,1,.5.5V8.49a1.89,1.89,0,0,0,1.51,1.85l3.78.76.75-.54a.65.65,0,0,0,.28-.47A.68.68,0,0,0,19.2,9.56ZM17.54,20H6.14a.51.51,0,0,0-.5.5V22H18V20.53A.51.51,0,0,0,17.54,20Z"></path></g></svg>