<svg height='100px' width='100px'  fill="#FFFFFF" xmlns="http://www.w3.org/2000/svg" xmlns:xlink="http://www.w3.org/1999/xlink" version="1.1" x="0px" y="0px" viewBox="0 0 52 52" style="enable-background:new 0 0 52 52;" xml:space="preserve"><style type="text/css">
	.st0{fill:none;stroke:#FFFFFF;stroke-width:2;stroke-linecap:round;stroke-linejoin:round;stroke-miterlimit:10;}
</style><g><g><path d="M2,19.1849976v7.8500366c0,1.2199707,0.9900513,2.2099609,2.2000122,2.2099609h1.8099976V16.9850464H4.2000122    C2.9900513,16.9850464,2,17.9750366,2,19.1849976z"></path></g><g><path d="M44.7400513,17.8450317c-0.5500488,0-1.0800171,0.0799561-1.5900269,0.25v10.0499878    c0.5100098,0.1599731,1.0499878,0.2399902,1.5900269,0.2399902C47.6400146,28.3850098,50,26.0250244,50,23.125    C50,20.2150269,47.6400146,17.8450317,44.7400513,17.8450317z"></path></g><g><rect x="8.0100098" y="14.8250122" width="5.4400024" height="16.5700073"></rect></g><g><path d="M13.460144,33.3948364H10.75v8.5501709c0,1.7900391,1.4500122,3.25,3.2400513,3.25h0.9299927    c1.789978,0,3.2399902-1.4599609,3.2399902-3.25v-8.5404053H13.460144V33.3948364z"></path></g><g><path d="M26.1000366,14.8250122H15.460022v16.5800171h10.6400146c8.8699951,0,14.0999756,6.6900024,15.0499878,8.0299683    V6.8049927C40.2000122,8.1450195,35,14.8250122,26.1000366,14.8250122z"></path></g></g></svg>