<svg height='100px' width='100px'  fill="#FFFFFF" xmlns="http://www.w3.org/2000/svg" viewBox="0 0 512 512" x="0px" y="0px"><path d="M147.05566,32H40a8.00917,8.00917,0,0,0-8,8V64H163.05566ZM56,56a8,8,0,1,1,8-8A8,8,0,0,1,56,56Zm24,0a8,8,0,1,1,8-8A8,8,0,0,1,80,56Zm24,0a8,8,0,1,1,8-8A8,8,0,0,1,104,56Z"></path><path d="M277.57764,296,320,267.71875V197.59619l-60.11475,33.397a7.99973,7.99973,0,0,1-7.7705,0L192,197.59619v70.12256L234.42236,296Z"></path><polygon points="311.527 184 256 153.151 200.473 184 256 214.849 311.527 184"></polygon><path d="M32,472a8.00917,8.00917,0,0,0,8,8H472a8.00917,8.00917,0,0,0,8-8V80H32Zm184-24H136V432h80Zm0-88H200V344h16Zm32,0H232V344h16Zm32,0H264V344h16Zm168,88H392V432h56Zm-32-56h32v16H416Zm-40,0h24v16H376Zm0,56H296V432h80Zm-80-88V344h16v16ZM176,184a8.00038,8.00038,0,0,1,4.11475-6.99316l72-40a8.00313,8.00313,0,0,1,7.7705,0l72,40A8.00038,8.00038,0,0,1,336,184v88a7.99943,7.99943,0,0,1-3.5625,6.65625l-48,32A7.99983,7.99983,0,0,1,280,312H232a7.99983,7.99983,0,0,1-4.4375-1.34375l-48-32A7.99943,7.99943,0,0,1,176,272ZM112,392h24v16H112Zm-48,0H96v16H64Zm0,40h56v16H64Z"></path><path d="M472,32H164.94434l16,32H480V40A8.00917,8.00917,0,0,0,472,32Z"></path></svg>