<svg height='100px' width='100px'  fill="#FFFFFF" xmlns="http://www.w3.org/2000/svg" data-name="Layer 1" viewBox="0 0 128 128" x="0px" y="0px"><title>Miscellaneous 182 solid</title><path d="M34,72a2,2,0,0,0,0,4h3.3736a35.26614,35.26614,0,0,1-.3327-4Z"></path><path d="M110.37,97.17A3.99838,3.99838,0,0,0,107.54,96a4.10166,4.10166,0,0,0-1.38.25l-8.24-8.24a30.97,30.97,0,1,0-10.14,9.68l8.47,8.47a3.9852,3.9852,0,0,0,.92,4.21l14.9,14.9a9.3338,9.3338,0,0,0,13.2-13.2ZM85.09,57.03a20.82275,20.82275,0,0,0-6.79-4.16,1.99672,1.99672,0,0,1,1.4-3.74,24.40636,24.40636,0,0,1,8.1,4.96A22.095,22.095,0,0,1,95,68.87,2.01634,2.01634,0,0,1,93.13,71H93a2.00176,2.00176,0,0,1-2-1.87A18.0534,18.0534,0,0,0,85.09,57.03Zm13.72491,46.03589-7.6814-7.6814a31.46332,31.46332,0,0,0,2.78638-2.46454c.54559-.54553,1.06055-1.113,1.56-1.69092l7.5863,7.5863Z"></path><circle cx="69" cy="15" r="2"></circle><circle cx="40" cy="15" r="2"></circle><path d="M6,66H37.36a33.73315,33.73315,0,0,1,.81-4H6a2.00591,2.00591,0,0,1-2-2V50H44a35.92937,35.92937,0,0,1,3.25-3.75,35.07963,35.07963,0,0,1,6.82-5.33A5.99508,5.99508,0,0,1,49,35a5.91409,5.91409,0,0,1,1.01-3.32L41.79,20.73a6.068,6.068,0,0,1-3.58,0L26.6,36.2a2,2,0,1,1-3.2-2.4L35.01,18.32A5.91424,5.91424,0,0,1,34,15a6,6,0,0,1,12,0,5.91424,5.91424,0,0,1-1.01,3.32l8.22,10.95a6.06926,6.06926,0,0,1,3.58,0l7.73-10.29A5.99312,5.99312,0,1,1,69,21a5.86584,5.86584,0,0,1-.94-.08L59.99,31.68A5.91409,5.91409,0,0,1,61,35a5.84193,5.84193,0,0,1-.84,3.05,35.06827,35.06827,0,0,1,36.59,8.2c.43.43.84.87,1.25,1.32V6a6.00476,6.00476,0,0,0-6-6H6A6.00476,6.00476,0,0,0,0,6V60A6.00476,6.00476,0,0,0,6,66ZM8,14a6.00476,6.00476,0,0,1,6-6h6a2,2,0,0,1,0,4H14a2.00587,2.00587,0,0,0-2,2v4a2,2,0,0,1-4,0Z"></path><circle cx="55" cy="35" r="2"></circle></svg>