<svg height='100px' width='100px'  fill="#FFFFFF" xmlns:x="http://ns.adobe.com/Extensibility/1.0/" xmlns:i="http://ns.adobe.com/AdobeIllustrator/10.0/" xmlns:graph="http://ns.adobe.com/Graphs/1.0/" xmlns="http://www.w3.org/2000/svg" xmlns:xlink="http://www.w3.org/1999/xlink" version="1.1" x="0px" y="0px" viewBox="0 0 100 100" style="enable-background:new 0 0 100 100;" xml:space="preserve"><g><g i:extraneous="self"><g><path d="M5273.1,2400.1v-2c0-2.8-5-4-9.7-4s-9.7,1.3-9.7,4v2c0,1.8,0.7,3.6,2,4.9l5,4.9c0.3,0.3,0.4,0.6,0.4,1v6.4     c0,0.4,0.2,0.7,0.6,0.8l2.9,0.9c0.5,0.1,1-0.2,1-0.8v-7.2c0-0.4,0.2-0.7,0.4-1l5.1-5C5272.4,2403.7,5273.1,2401.9,5273.1,2400.1z      M5263.4,2400c-4.8,0-7.4-1.3-7.5-1.8v0c0.1-0.5,2.7-1.8,7.5-1.8c4.8,0,7.3,1.3,7.5,1.8C5270.7,2398.7,5268.2,2400,5263.4,2400z"></path><path d="M5268.4,2410.3c-0.6,0-1,0.4-1,1c0,0.6,0.4,1,1,1h4.3c0.6,0,1-0.4,1-1c0-0.6-0.4-1-1-1H5268.4z"></path><path d="M5272.7,2413.7h-4.3c-0.6,0-1,0.4-1,1c0,0.6,0.4,1,1,1h4.3c0.6,0,1-0.4,1-1C5273.7,2414.1,5273.3,2413.7,5272.7,2413.7z"></path><path d="M5272.7,2417h-4.3c-0.6,0-1,0.4-1,1c0,0.6,0.4,1,1,1h4.3c0.6,0,1-0.4,1-1C5273.7,2417.5,5273.3,2417,5272.7,2417z"></path></g><g><path d="M70.9,22.5h16.1c-0.3-0.5-0.7-1-1.2-1.5L69.9,5.1c-0.4-0.4-0.9-0.8-1.5-1.2v16C68.4,21.4,69.5,22.5,70.9,22.5z"></path><polygon points="34.6,58.8 46.1,74 41.3,58.8    "></polygon><polygon points="52.1,48.7 47.9,48.7 45.4,55.1 54.6,55.1    "></polygon><polygon points="45.2,58.8 50,74.1 54.8,58.8    "></polygon><path d="M44,48.7h-5.2c-0.4,0-0.8,0.2-1,0.6l-3.5,5.8h7.2L44,48.7z"></path><path d="M70.9,29.2c-5.1,0-9.2-4.1-9.2-9.2V2.5l-41.1,0c0,0,0,0,0,0c-2.4,0-4.6,0.9-6.3,2.6c-1.7,1.7-2.6,3.9-2.6,6.3v77.1     c0,4.9,4,8.9,8.9,8.9h58.9c4.9,0,8.9-4,8.9-8.9V29.2H70.9z M69.3,59.7L53.8,80.1C52.9,81.3,51.5,82,50,82c-1.5,0-2.9-0.7-3.8-1.9     L30.7,59.7c-1.2-1.6-1.3-3.7-0.3-5.4l4.2-6.9c0.9-1.4,2.5-2.3,4.1-2.3h22.5c1.7,0,3.3,0.9,4.1,2.3l4.2,6.9     C70.6,56,70.5,58.1,69.3,59.7z"></path><path d="M61.2,48.7H56l2.5,6.4h7.2l-3.5-5.8C62,48.9,61.6,48.7,61.2,48.7z"></path><polygon points="53.9,74 65.4,58.8 58.7,58.8    "></polygon></g></g></g></svg>